<svg viewBox="0 0 1200 360" width="1200" height="360" xmlns="http://www.w3.org/2000/svg">
  <defs>
    <linearGradient id="bg" x1="0%" y1="0%" x2="100%" y2="100%">
      <stop offset="0%" stop-color="#1a0f2e"/>
      <stop offset="50%" stop-color="#2d1b4e"/>
      <stop offset="100%" stop-color="#0f0820"/>
    </linearGradient>
    <radialGradient id="glow1" cx="50%" cy="50%" r="50%">
      <stop offset="0%" stop-color="#ff6ec7" stop-opacity="0.35"/>
      <stop offset="100%" stop-color="#ff6ec7" stop-opacity="0"/>
    </radialGradient>
    <radialGradient id="glow2" cx="50%" cy="50%" r="50%">
      <stop offset="0%" stop-color="#7c4dff" stop-opacity="0.3"/>
      <stop offset="100%" stop-color="#7c4dff" stop-opacity="0"/>
    </radialGradient>
    <linearGradient id="lineGrad" x1="0%" y1="0%" x2="100%" y2="0%">
      <stop offset="0%" stop-color="#ffffff" stop-opacity="0"/>
      <stop offset="50%" stop-color="#ffffff" stop-opacity="0.4"/>
      <stop offset="100%" stop-color="#ffffff" stop-opacity="0"/>
    </linearGradient>
  </defs>

  <rect x="0" y="0" width="1200" height="360" fill="url(#bg)"/>

  <ellipse cx="200" cy="80" rx="260" ry="180" fill="url(#glow1)"/>
  <ellipse cx="1000" cy="300" rx="280" ry="200" fill="url(#glow2)"/>

  <circle cx="120" cy="60" r="3" fill="#ffffff" opacity="0.5"/>
  <circle cx="180" cy="120" r="2" fill="#ffffff" opacity="0.4"/>
  <circle cx="90" cy="180" r="2.5" fill="#ffffff" opacity="0.45"/>
  <circle cx="1080" cy="70" r="3" fill="#ffffff" opacity="0.5"/>
  <circle cx="1030" cy="140" r="2" fill="#ffffff" opacity="0.4"/>
  <circle cx="1110" cy="200" r="2.5" fill="#ffffff" opacity="0.45"/>
  <circle cx="150" cy="300" r="2" fill="#ffffff" opacity="0.35"/>
  <circle cx="1060" cy="310" r="2" fill="#ffffff" opacity="0.35"/>

  <polygon points="60,240 68,255 84,255 71,264 76,280 60,270 44,280 49,264 36,255 52,255" fill="#ff6ec7" opacity="0.25"/>
  <polygon points="1140,90 1146,102 1159,102 1149,109 1153,122 1140,114 1127,122 1131,109 1121,102 1134,102" fill="#7c4dff" opacity="0.25"/>

  <path d="M 40 40 L 100 40 L 100 60" stroke="#ffffff" stroke-width="1.5" fill="none" opacity="0.25"/>
  <path d="M 1160 320 L 1100 320 L 1100 300" stroke="#ffffff" stroke-width="1.5" fill="none" opacity="0.25"/>

  <line x1="80" y1="185" x2="1120" y2="185" stroke="url(#lineGrad)" stroke-width="1"/>

  <text x="600" y="150" font-family="Segoe UI, Arial, sans-serif" font-size="64.0" font-weight="bold" fill="#ffffff" text-anchor="middle">
    <tspan x="600" dy="0">Bid Anime! Script</tspan>
  </text>

  <text x="600" y="215" font-family="Segoe UI, Arial, sans-serif" font-size="22.0" fill="#c9d1d9" text-anchor="middle">
    <tspan x="600" dy="0">Bid for Anime!</tspan>
  </text>

  <circle cx="600" cy="255" r="3" fill="#ff6ec7" opacity="0.6"/>
  <circle cx="580" cy="255" r="2" fill="#7c4dff" opacity="0.5"/>
  <circle cx="620" cy="255" r="2" fill="#7c4dff" opacity="0.5"/>
</svg>